<svg xmlns="http://www.w3.org/2000/svg" width="100" height="100" viewBox="0 0 100 100">
  <!-- Bottle outline -->
  <path d="M35 15 Q35 5 45 5 L55 5 Q65 5 65 15 L65 25 Q68 25 68 30 L68 80 Q68 90 58 90 L42 90 Q32 90 32 80 L32 30 Q32 25 35 25 Z" 
        fill="#FF8C00" stroke="#E67300" stroke-width="2"/>
  
  <!-- Label area -->
  <rect x="35" y="35" width="30" height="25" fill="#FFFFFF" rx="3"/>
  
  <!-- Fanta text -->
  <text x="50" y="45" text-anchor="middle" font-family="sans-serif" font-size="8" font-weight="bold" fill="#FF8C00">Fanta</text>
  
  <!-- Orange slice decoration -->
  <circle cx="45" cy="52" r="3" fill="#FF8C00"/>
  <circle cx="55" cy="52" r="3" fill="#FF8C00"/>
  
  <!-- Bottle cap -->
  <rect x="42" y="5" width="16" height="8" fill="#FF8C00" rx="2"/>
  <rect x="44" y="7" width="12" height="4" fill="#FFFFFF" rx="1"/>
</svg>