<svg xmlns="http://www.w3.org/2000/svg" width="100" height="100" viewBox="0 0 100 100">
  <!-- Bottle outline -->
  <path d="M35 15 Q35 5 45 5 L55 5 Q65 5 65 15 L65 25 Q68 25 68 30 L68 80 Q68 90 58 90 L42 90 Q32 90 32 80 L32 30 Q32 25 35 25 Z" 
        fill="#87CEEB" stroke="#4682B4" stroke-width="2"/>
  
  <!-- Label area -->
  <rect x="35" y="35" width="30" height="25" fill="#FFFFFF" rx="3"/>
  
  <!-- Farris text -->
  <text x="50" y="45" text-anchor="middle" font-family="sans-serif" font-size="6" font-weight="bold" fill="#4682B4">Farris</text>
  <text x="50" y="53" text-anchor="middle" font-family="sans-serif" font-size="5" fill="#4682B4">Natural</text>
  
  <!-- Water bubbles -->
  <circle cx="42" cy="40" r="1" fill="#87CEEB"/>
  <circle cx="58" cy="42" r="1" fill="#87CEEB"/>
  <circle cx="47" cy="56" r="1" fill="#87CEEB"/>
  
  <!-- Bottle cap -->
  <rect x="42" y="5" width="16" height="8" fill="#4682B4" rx="2"/>
  <rect x="44" y="7" width="12" height="4" fill="#FFFFFF" rx="1"/>
</svg>