<svg xmlns="http://www.w3.org/2000/svg" width="100" height="100" viewBox="0 0 100 100">
  <!-- Bottle outline -->
  <path d="M35 15 Q35 5 45 5 L55 5 Q65 5 65 15 L65 25 Q68 25 68 30 L68 80 Q68 90 58 90 L42 90 Q32 90 32 80 L32 30 Q32 25 35 25 Z" 
        fill="#004B93" stroke="#003366" stroke-width="2"/>
  
  <!-- Label area -->
  <ellipse cx="50" cy="47" rx="15" ry="12" fill="#FFFFFF"/>
  
  <!-- Pepsi logo circle -->
  <circle cx="50" cy="47" r="10" fill="#004B93"/>
  <path d="M45 42 Q50 47 55 42 Q50 52 45 42" fill="#FF0000"/>
  <path d="M45 52 Q50 47 55 52 Q50 42 45 52" fill="#FFFFFF"/>
  
  <!-- Bottle cap -->
  <rect x="42" y="5" width="16" height="8" fill="#004B93" rx="2"/>
  <rect x="44" y="7" width="12" height="4" fill="#FFFFFF" rx="1"/>
</svg>